<svg version="1.1" xmlns="http://www.w3.org/2000/svg" xmlns:xlink="http://www.w3.org/1999/xlink" class="c-kontur_logo_svg" width="100%" height="100%" x="0px" y="0px" viewBox="0 0 100 30" style="shape-rendering:geometricPrecision; fill-rule:nonzero ; clip-rule:nonzero " xml:space="preserve">
<defs>
<style type="text/css">
<![CDATA[
    .c-kontur_logo_svg .c-kontur_logo_svg_color {
        fill:#404040;
        fill-rule: nonzero;
    }
    .c-kontur_logo_svg .c-kontur_logo_svg_color__project {
        fill:#952c8c;
        fill-rule: nonzero;
    }
]]>
</style>
</defs>
		<g>
			<path class="c-kontur_logo_svg_color" d="M58,14h-5v-4h-2v11h2v-5h5v5h2V10h-2V14z M61.5,11.9H65V21h2
				v-9.1h3.4V10h-8.9V11.9z M23.7,10h-2.3L17,15.1h0V10h-2v11h2v-5.2h0l4.6,5.2h2.5l-5.5-5.6L23.7,10z M93.1,11.6
				c-0.8-1-2.1-1.8-3.5-1.8c-1.5,0-2.7,1-3.6,2.4l0-0.7V10h-2v16h2v-6.6h0c0.8,1.2,1.9,1.8,3.3,1.8c1.5,0,2.8-0.6,3.7-1.7
				c0.9-1.1,1.3-2.1,1.3-4C94.3,13.9,93.9,12.6,93.1,11.6z M91.6,18.5c-0.6,0.8-1.4,1.2-2.5,1.2c-0.9,0-1.7-0.3-2.2-0.9
				c-0.6-0.6-0.9-1.4-0.9-2.3v-1.1c0-1.1,0.3-2,0.9-2.7c0.6-0.7,1.4-1.1,2.5-1.1c1,0,1.7,0.3,2.3,1c0.6,0.7,0.8,1.6,0.8,2.9
				C92.5,17,92.2,17.7,91.6,18.5z M77.3,17.8c-0.1,0.4-0.2,0.6-0.2,0.8H77c-0.1-0.4-0.2-0.7-0.2-0.8l-2.8-7.7l-2-0.1l4.3,10.9
				L75.3,23c-0.4,1.1-1.1,1.5-2,1.5c-0.3,0-0.9,0.1-1.3-0.1v1.5c0.3,0.1,1,0.1,1.4,0.1c1.6,0,2.9-1.1,3.8-3.4l5-12.7h-1.9L77.3,17.8
				z"/>
		</g>
		<g>
			<path class="c-kontur_logo_svg_color__project" d="M43.6,8.9c-0.7-0.3-1.5-0.3-2.2-0.2
				c-0.3-0.6-0.7-1.1-1.2-1.5c-1.3-1-2.8-1.5-4.5-1.5c-2.6,0-4.9,1.3-6.1,3.8c-0.2,0.5-0.4,1.1-0.4,1.7c-0.5,0-1.1,0.1-1.5,0.4
				c-1.6,1.1-2.7,2.9-2.7,5c0,3.3,2.7,5.6,6.1,5.6h10c3.8,0,6.8-3,6.8-6.8C47.9,12.4,46.2,9.9,43.6,8.9z M40.9,20h-9.6
				c-2.4,0-4.3-1.4-4.3-3.7c0-1.3,0.6-2.5,1.7-3.3c0.2-0.2,0.7-0.3,1.2-0.3c0.9-0.1,1.1,0.2,1.1-1c0-0.5,0.2-1,0.4-1.3
				c0.7-1.8,2.6-2.8,4.4-2.8c1.4,0,2.6,0.4,3.6,1.3c0.3,0.2,0.3,0.9,0.3,1.3c0.1,0.5,0.3,0.7,1,0.3c0.4-0.2,1-0.2,1.5-0.1
				c2.1,0.5,3.6,2.5,3.6,4.7C45.9,17.8,43.7,20,40.9,20z"/>
		</g>
</svg>



