<svg xmlns="http://www.w3.org/2000/svg" xmlns:xlink="http://www.w3.org/1999/xlink" width="100%" height="100%" style="shape-rendering:geometricPrecision; fill-rule:nonzero ; clip-rule:nonzero " viewBox="0 0 1200 300" version="1.1">
<defs>
<style type="text/css">
<![CDATA[
    .c-kontur_logo_svg .c-kontur_logo_svg_color {
        fill:#808080;
        fill-rule: nonzero;
    }
    .c-kontur_logo_svg .c-kontur_logo_svg_color__project {
        fill:#909090;
        fill-rule: nonzero;
   }

    .c-kontur_logo_svg__hover .c-kontur_logo_svg_color {
        fill:#404040;
        fill-rule: nonzero;
    }
    .c-kontur_logo_svg__hover .c-kontur_logo_svg_color__project {
        fill:#ed413d;
        fill-rule: nonzero;
    }
]]>
</style>
</defs>
<g id="test" class="c-kontur_logo_svg">
<path class="c-kontur_logo_svg_color__project" d="M67.6,40H240v172.916C240,238.991,219.134,260,192.946,260H89.998l112.861-142.664l-36.55-37.515h-32.908
	l33.402,35.78L47.296,238.68c-2.135-1.931-4.156-3.978-6.081-6.123l115.409-116.038l-41.596-46.52H210v97.044l-21.304-19.223
	l-17.23,21.143l58.533,53.35V50H58.079l61.162,67.336L20.06,186.535C20,153.841,20,120.666,20,87.917C20,61.835,41.403,40,67.6,40z"
	/>
<path class="c-kontur_logo_svg_color" d="M384.284,100.486L384.284,100.486c-8.08-3.34-16.978-5.013-25.759-5.013c-13.735,0-25.414,4.222-34.326,11.725
	C312.008,117.466,305,133.875,305,154.022c0,18.964,5.545,33.312,15.005,42.674c8.795,8.71,20.978,13.104,35.212,12.89
	c12.482-0.009,22.297-1.961,29.552-5.444l0.006-18.689c-8,4.049-16.78,6.857-25.364,6.712c-10.345-0.156-17.986-4.112-23.243-10.219
	c-6.084-7.07-8.963-17.031-9.122-27.357c-0.197-12.427,2.917-25.246,11.121-33.209c5.027-4.889,11.974-7.954,21.244-7.981
	c7.326-0.022,14.611,2.461,20.327,7.487L384.284,100.486L384.284,100.486z M422.048,95.16H400v114.801h22.048v-52.37h5.754
	l33.175,52.37h27.222l-42.225-61.073l40.419-53.763l-25.764,0.035l-34.06,47.689h-4.522V95.16L422.048,95.16z M517.163,114.494
	L517.163,114.494h22.532c9.031,0,18.926,0.876,27.942,2.598V95.125h-72.52v114.808c7.087,0,14.141,0.272,21.171,0.532
	c6.346,0.229,12.671,0.446,18.967,0.446c10.656,0,19.879-4.744,26.816-9.677c8.387-5.969,13.433-15.403,13.611-27.952
	c0.162-11.289-4.054-19.188-10.942-24.341c-7.427-5.552-17.958-7.936-29.484-7.959c-6.049-0.006-12.08,0.497-18.092,1.143V114.494
	L517.163,114.494z M517.163,190.923v-31.682c6.295-0.559,12.062-0.868,18.092-0.752c6.549,0.12,11.49,1.378,14.641,4.164
	c2.665,2.355,4.05,5.803,4.042,10.592c-0.012,6.562-1.605,11.244-4.948,14.21c-3.072,2.729-7.617,4.007-13.765,3.948
	C529.35,191.346,524.204,191.333,517.163,190.923L517.163,190.923L517.163,190.923z M640.048,95.16H618v114.801h22.048v-52.37h5.754
	l33.175,52.37h27.223l-42.226-61.073l40.42-53.763L678.63,95.16l-34.06,47.689h-4.522V95.16L640.048,95.16z M784.157,164.363
	c0.063,10.438-2.614,20.248-7.85,28.061c-7.023,10.483-18.646,17.368-34.407,17.368c-15.478,0-25.938-5.642-32.438-14.52
	c-5.989-8.186-8.606-19.112-8.687-30.909c-0.068-10.987,2.898-21.27,8.687-29.269c7.092-9.801,18.422-16.164,33.57-16.171
	c14.903,0,25.156,5.236,31.701,13.558C781.239,140.752,784.075,152.092,784.157,164.363L784.157,164.363L784.157,164.363z
	 M721.91,164.363c0,6.461,1.375,14.402,5.084,20.378c3.205,5.147,8.156,8.84,15.475,8.84c8.287,0,13.541-4.732,16.656-10.974
	c2.818-5.644,3.895-12.521,3.895-18.244c0-6.189-1.255-13.735-4.622-19.603c-3.186-5.557-8.251-9.607-15.929-9.607
	c-7.762,0-12.857,4.141-16.035,9.787C723.146,150.782,721.91,158.236,721.91,164.363L721.91,164.363L721.91,164.363z
	 M871.127,209.933L871.127,209.933v-88.947h-21.448v33.416h-35.163v-33.416h-21.442v88.947h21.442v-38.922h35.163v38.922H871.127
	L871.127,209.933z M880.381,120.977L880.381,120.977v18.367c7.661-1.637,16.309-2.196,23.649-2.196h4.482v72.784h20.622
	l0.012-72.814h4.488c7.344,0,15.99,0.57,23.648,2.198v-18.358L880.381,120.977L880.381,120.977z M995.521,213.264L995.521,213.264
	c-1.758,6.626-7.712,12.091-16.172,12.076c-3.113-0.009-5.561-0.719-8.359-1.978l-3.716,16.719c3.86,1.809,8.189,3.016,12.783,2.986
	c9.785-0.058,17.399-4.258,23.472-10.498c6.596-6.771,11.384-15.948,15.167-24.815c10.513-24.63,21.07-55.613,30.583-86.768h-22.584
	l-19.524,65.493l-20.732-65.421h-23.802L995.521,213.264L995.521,213.264z M1097.734,136.395L1097.734,136.395
	c5.88,0.027,9.729,3.136,12.165,7.412c2.811,4.931,3.754,11.407,3.776,16.521c0.039,8.33-0.489,17.82-4.872,24.246
	c-3.032,4.445-7.9,7.434-15.69,7.57c-5.159,0.093-10.988-0.504-15.375-3.275l0.004-42.356
	C1082.856,140.028,1089.038,136.358,1097.734,136.395L1097.734,136.395z M1056.299,120.986L1056.299,120.986v120.173h21.443v-33.405
	c4.276,1.45,9.174,2.084,13.704,2.061c13.823-0.072,23.982-4.214,30.996-11.223c8.954-8.939,12.773-22.54,12.548-38.264
	c-0.158-11.123-2.236-21.83-7.807-29.572c-5.187-7.201-13.391-11.833-25.876-11.833c-10.421,0-20.721,3.914-27.086,11.915
	l-2.201-9.852H1056.299z"/>
</g>
</svg>


